<svg xmlns="http://www.w3.org/2000/svg" viewBox="0 0 1400 1400"><defs><style>.cls-1{fill:#fffcff;}.cls-2{fill:#42ffd0;}.cls-3{fill:#e44ee8;}.cls-4{fill:#374dc1;}</style></defs><title>retro-offset-fidget-spinner-vector</title><g id="Background"><rect class="cls-1" width="1400" height="1400"/></g><g id="Design"><path class="cls-2" d="M643.65,702a74.65,74.65,0,0,0-14.07,85.86q-.41-4.3-.41-8.7a91.64,91.64,0,0,1,91.63-91.64c2.94,0,5.84.15,8.71.42A74.62,74.62,0,0,0,643.65,702Z"/><path class="cls-2" d="M1002.44,847.12A92.55,92.55,0,0,0,880,969.55a109.64,109.64,0,0,1,122.42-122.43Z"/><path class="cls-2" d="M630.94,387.83A92.63,92.63,0,0,0,612,491.37a112.41,112.41,0,0,1-.84-13.68A109.64,109.64,0,0,1,734.47,368.94a92.63,92.63,0,0,0-103.53,18.89Z"/><path class="cls-2" d="M356.54,866a92.63,92.63,0,0,0-18.89,103.53A109.64,109.64,0,0,1,460.07,847.13,92.63,92.63,0,0,0,356.54,866Z"/><path class="cls-2" d="M1149.46,896.91A186.18,186.18,0,0,1,932,1114.09a169.12,169.12,0,0,0,217.48-217.18Z"/><path class="cls-2" d="M1135.48,931.14a168.28,168.28,0,0,0-37.89-106.62,168.25,168.25,0,0,0-102.31-37.84v0a150.39,150.39,0,0,1-110.17-56.86A150.82,150.82,0,0,1,845,542.1l-.06,0a169.08,169.08,0,0,0-17.5-187.22A169.06,169.06,0,0,0,571,564.37,150.74,150.74,0,0,1,446.29,786.64v0a169,169,0,0,0-126.73,275.59,169.06,169.06,0,0,0,248.83-39.67c.35-.57.74-1.15,1.09-1.73a150.68,150.68,0,0,1,244.91-12.24,151.27,151.27,0,0,1,33.33,36.85l0,0a169.35,169.35,0,0,0,12.1,16.88,169,169,0,0,0,275.63-131.18ZM446.4,1065.48a109.47,109.47,0,0,1-88.77-45.31A109.6,109.6,0,1,1,510.68,867.11a109.6,109.6,0,0,1-64.28,198.37ZM720.8,870.82a91.53,91.53,0,0,1-75.87-40.24A91.64,91.64,0,1,1,772.2,703.32a91.63,91.63,0,0,1-51.4,167.5Zm0-283.53A109.45,109.45,0,0,1,632,542,109.6,109.6,0,1,1,785.08,388.92a109.6,109.6,0,0,1-64.29,198.37ZM900,1020.16a109.6,109.6,0,1,1,153-153,109.6,109.6,0,1,1-153,153Z"/><path class="cls-2" d="M631.35,985.54A134.59,134.59,0,0,0,584,1030l-.63,1c-.12.18-.24.37-.35.56l-.22.35a186.48,186.48,0,0,1-190.85,82.27,169.24,169.24,0,0,0,200.92-67.08c.36-.58.74-1.15,1.09-1.73A151,151,0,0,1,745.46,978a133.69,133.69,0,0,0-114.11,7.51Z"/><path class="cls-2" d="M860.77,548.8c-.17.41-.36.82-.57,1.22a132.17,132.17,0,0,0-15,61.66,133.58,133.58,0,0,0,9.38,49.3,151.29,151.29,0,0,1,14.94-94.4l-.07,0a169.43,169.43,0,0,0,9.92-139.31A187.75,187.75,0,0,1,876.62,508,184.5,184.5,0,0,1,860.77,548.8Z"/><path class="cls-3" d="M1002.44,847.12A92.47,92.47,0,1,1,880,969.55a109,109,0,0,0,20,50.61,109.6,109.6,0,0,0,153-153A109,109,0,0,0,1002.44,847.12Z"/><path class="cls-3" d="M696.32,562.81a109.6,109.6,0,0,0,88.76-173.89,109,109,0,0,0-50.61-20A92.45,92.45,0,1,1,612,491.37,109.15,109.15,0,0,0,632,542,109.11,109.11,0,0,0,696.32,562.81Z"/><path class="cls-3" d="M460.07,847.13A92.46,92.46,0,1,1,337.65,969.55a109,109,0,0,0,20,50.62A109.6,109.6,0,0,0,510.68,867.11,108.94,108.94,0,0,0,460.07,847.13Z"/><path class="cls-3" d="M696.34,292.48a168.67,168.67,0,0,1,131.1,62.37,169.46,169.46,0,0,1,51.89,72.39,186.15,186.15,0,0,0-369.15,34.28,186.77,186.77,0,0,0,5.51,45.14,184.61,184.61,0,0,0,15.67,41.19l.12.21A133.59,133.59,0,0,1,421,745.06l-.67,0a186.16,186.16,0,0,0-28.34,369.06,169.37,169.37,0,0,1-72.38-51.89A169,169,0,0,1,421.82,762.2v0A150.74,150.74,0,0,0,546.53,539.89,169.11,169.11,0,0,1,696.34,292.48Z"/><path class="cls-3" d="M859.85,1062.32A170,170,0,0,1,823.27,1021l0,0a148.49,148.49,0,0,0-8.85-12.37A150.09,150.09,0,0,0,745.46,978a132.12,132.12,0,0,1,15.91,7.54,134.46,134.46,0,0,1,47.45,44.68c.2.31.41.62.64.92A185.72,185.72,0,0,0,932,1114.09,169.18,169.18,0,0,1,859.85,1062.32Z"/><path class="cls-3" d="M1138.41,859.73A186.06,186.06,0,0,0,972.34,745.1l-.65,0A133.77,133.77,0,0,1,854.54,661a150.09,150.09,0,0,0,30.57,68.8,150,150,0,0,0,85.7,32.39v0a168.7,168.7,0,0,1,126.78,62.32,169.28,169.28,0,0,1,51.87,72.39A183.75,183.75,0,0,0,1138.41,859.73Z"/><path class="cls-3" d="M788,754.71a91.15,91.15,0,0,0-15.76-51.39A91,91,0,0,0,729.51,688,74.89,74.89,0,0,1,749,702a74.5,74.5,0,1,1-119.43,85.86,91.08,91.08,0,0,0,15.35,42.69,91.63,91.63,0,0,0,143-75.87Z"/><path class="cls-4" d="M900,1020.16a109,109,0,0,1-20-50.61,92.55,92.55,0,0,1,122.42-122.43,109,109,0,0,1,50.61,20,109.6,109.6,0,1,0-153,153Z"/><path class="cls-4" d="M632,542a109.15,109.15,0,0,1-20-50.61A92.55,92.55,0,0,1,734.47,368.94a109,109,0,0,1,50.61,20A109.6,109.6,0,1,0,632,542Z"/><path class="cls-4" d="M357.63,1020.17a109,109,0,0,1-20-50.62A92.55,92.55,0,0,1,460.07,847.13a108.94,108.94,0,0,1,50.61,20,109.6,109.6,0,1,0-153,153.06Z"/><path class="cls-4" d="M696.34,951.55a150.61,150.61,0,0,0-126.86,69.32c-.35.58-.74,1.16-1.09,1.73a169.06,169.06,0,0,1-248.83,39.67,169.37,169.37,0,0,0,72.38,51.89,186.18,186.18,0,0,0,190.85-82.27l.22-.35c.11-.19.23-.38.35-.56l.63-1a133.62,133.62,0,0,1,161.47-52,150.09,150.09,0,0,1,68.93,30.6A150.4,150.4,0,0,0,696.34,951.55Z"/><path class="cls-4" d="M885.11,729.78A150.09,150.09,0,0,1,854.54,661a133.58,133.58,0,0,1-9.38-49.3,132.17,132.17,0,0,1,15-61.66c.21-.4.4-.81.57-1.22A184.5,184.5,0,0,0,876.62,508a187.75,187.75,0,0,0,2.71-80.79,169.46,169.46,0,0,0-51.89-72.39,169.08,169.08,0,0,1,17.5,187.22l.06,0a150.82,150.82,0,0,0,40.11,187.68Z"/><path class="cls-4" d="M1149.46,896.91a169.28,169.28,0,0,0-51.87-72.39,169,169,0,0,1-237.74,237.8A169.18,169.18,0,0,0,932,1114.09a186.27,186.27,0,0,0,217.48-217.18Z"/><path class="cls-4" d="M696.33,680.21A74.12,74.12,0,0,1,729.51,688a91,91,0,0,1,42.69,15.35A91.64,91.64,0,1,0,644.93,830.58a91.08,91.08,0,0,1-15.35-42.69,74.54,74.54,0,0,1,66.75-107.68Z"/></g></svg>